<mxfile host="app.diagrams.net" modified="2023-04-25T05:55:26.577Z" agent="Mozilla/5.0 (Windows NT 10.0; Win64; x64) AppleWebKit/537.36 (KHTML, like Gecko) Chrome/112.0.0.0 Safari/537.36" version="21.2.1" etag="yim7ofARo6BhV7lhWwDf" type="github">
  <diagram name="Page-1" id="FCYviGvvRSb2qaYlQ5dB">
    <mxGraphModel>
      <root>
        <mxCell id="0" />
        <mxCell id="1" parent="0" />
      </root>
    </mxGraphModel>
  </diagram>
</mxfile>
